<svg xmlns="http://www.w3.org/2000/svg" width="1540" height="1150" viewBox="0 0 1540 1150">
<defs>
<marker id="arrow" markerWidth="10" markerHeight="10" refX="9" refY="3" orient="auto" markerUnits="strokeWidth">
<path d="M0,0 L0,6 L9,3 z" fill="#5f6368"/>
</marker>
</defs>
<rect width="100%" height="100%" fill="#ffffff"/>
<text x="30.0" y="38.0" text-anchor="start" dominant-baseline="middle" font-family="Arial, sans-serif" font-size="26" font-weight="bold" fill="#202124">Figure SI01-01 — SI-01 layered architecture — responsibilities and services</text>
<text x="30.0" y="68.0" text-anchor="start" dominant-baseline="middle" font-family="Arial, sans-serif" font-size="12" font-weight="normal" fill="#202124">Selected arrows show principal relationships only; this is not a complete call graph or Maven artifact view.</text>
<rect x="120" y="85" width="1120" height="145" rx="10" ry="10" fill="#eef4ff" stroke="#6c8ebf" stroke-width="2"/>
<text x="136.0" y="107.0" text-anchor="start" dominant-baseline="middle" font-family="Arial, sans-serif" font-size="17" font-weight="bold" fill="#202124">Presentation / external interfaces</text>
<rect x="120" y="260" width="1120" height="155" rx="10" ry="10" fill="#eef8ee" stroke="#82b366" stroke-width="2"/>
<text x="136.0" y="282.0" text-anchor="start" dominant-baseline="middle" font-family="Arial, sans-serif" font-size="17" font-weight="bold" fill="#202124">Application layer</text>
<rect x="120" y="445" width="1120" height="300" rx="10" ry="10" fill="#fff8df" stroke="#d6b656" stroke-width="2"/>
<text x="136.0" y="467.0" text-anchor="start" dominant-baseline="middle" font-family="Arial, sans-serif" font-size="17" font-weight="bold" fill="#202124">Domain layer</text>
<rect x="145" y="485" width="820" height="235" rx="10" ry="10" fill="#fffaf0" stroke="#d6b656" stroke-width="2"/>
<text x="161.0" y="507.0" text-anchor="start" dominant-baseline="middle" font-family="Arial, sans-serif" font-size="17" font-weight="bold" fill="#202124">TimingNode (1..N)</text>
<rect x="120" y="775" width="1120" height="165" rx="10" ry="10" fill="#fff0ee" stroke="#b85450" stroke-width="2"/>
<text x="136.0" y="797.0" text-anchor="start" dominant-baseline="middle" font-family="Arial, sans-serif" font-size="17" font-weight="bold" fill="#202124">I/O</text>
<rect x="120" y="970" width="1120" height="100" rx="10" ry="10" fill="#f2eff8" stroke="#9673a6" stroke-width="2"/>
<text x="136.0" y="992.0" text-anchor="start" dominant-baseline="middle" font-family="Arial, sans-serif" font-size="17" font-weight="bold" fill="#202124">Platform abstractions / execution environment</text>
<rect x="1270" y="85" width="230" height="1020" rx="10" ry="10" fill="#f5f5f5" stroke="#777777" stroke-width="2"/>
<text x="1286.0" y="107.0" text-anchor="start" dominant-baseline="middle" font-family="Arial, sans-serif" font-size="17" font-weight="bold" fill="#202124">Cross-cutting</text>
<polyline points="260.0,200.0 260.0,252.5 786.0,252.5 786.0,305.0" fill="none" stroke="#5f6368" stroke-width="2" marker-end="url(#arrow)"/>
<polyline points="500.0,200.0 500.0,252.5 876.0,252.5 876.0,305.0" fill="none" stroke="#5f6368" stroke-width="2" marker-end="url(#arrow)"/>
<polyline points="880.0,200.0 880.0,252.5 984.0,252.5 984.0,305.0" fill="none" stroke="#5f6368" stroke-width="2" marker-end="url(#arrow)"/>
<polyline points="930.0,380.0 930.0,440.0 455.0,440.0 455.0,500.0" fill="none" stroke="#5f6368" stroke-width="2" marker-end="url(#arrow)"/>
<polyline points="430.0,380.0 430.0,440.0 395.0,440.0 395.0,500.0" fill="none" stroke="#5f6368" stroke-width="2" stroke-dasharray="7 5" marker-end="url(#arrow)"/>
<polyline points="538.0,380.0 538.0,475.0 1100.0,475.0 1100.0,570.0" fill="none" stroke="#5f6368" stroke-width="2" stroke-dasharray="7 5" marker-end="url(#arrow)"/>
<polyline points="1100.0,570.0 1100.0,385.0 930.0,385.0 930.0,200.0" fill="none" stroke="#5f6368" stroke-width="2" stroke-dasharray="7 5" marker-end="url(#arrow)"/>
<polyline points="525.0,825.0 525.0,687.5 523.0,687.5 523.0,550.0" fill="none" stroke="#5f6368" stroke-width="2" marker-end="url(#arrow)"/>
<polyline points="835.0,825.0 835.0,687.5 667.0,687.5 667.0,550.0" fill="none" stroke="#5f6368" stroke-width="2" stroke-dasharray="7 5" marker-end="url(#arrow)"/>
<polyline points="255.0,900.0 255.0,950.0 284.0,950.0 284.0,1000.0" fill="none" stroke="#5f6368" stroke-width="2" marker-end="url(#arrow)"/>
<polyline points="525.0,900.0 525.0,950.0 548.0,950.0 548.0,1000.0" fill="none" stroke="#5f6368" stroke-width="2" marker-end="url(#arrow)"/>
<polyline points="835.0,900.0 835.0,950.0 812.0,950.0 812.0,1000.0" fill="none" stroke="#5f6368" stroke-width="2" marker-end="url(#arrow)"/>
<polyline points="1112.5,900.0 1112.5,950.0 1049.6,950.0 1049.6,1000.0" fill="none" stroke="#5f6368" stroke-width="2" marker-end="url(#arrow)"/>
<rect x="150" y="135" width="220" height="65" rx="8" ry="8" fill="#dae8fc" stroke="#6c8ebf" stroke-width="2"/>
<text x="260.0" y="158.0" text-anchor="middle" dominant-baseline="middle" font-family="Arial, sans-serif" font-size="14" font-weight="normal" fill="#202124">Console</text>
<text x="260.0" y="179.0" text-anchor="middle" dominant-baseline="middle" font-family="Arial, sans-serif" font-size="11" font-weight="normal" fill="#202124">local text interface</text>
<rect x="390" y="135" width="220" height="65" rx="8" ry="8" fill="#dae8fc" stroke="#6c8ebf" stroke-width="2"/>
<text x="500.0" y="158.0" text-anchor="middle" dominant-baseline="middle" font-family="Arial, sans-serif" font-size="14" font-weight="normal" fill="#202124">Remote Shell</text>
<text x="500.0" y="179.0" text-anchor="middle" dominant-baseline="middle" font-family="Arial, sans-serif" font-size="11" font-weight="normal" fill="#202124">remote text interface</text>
<rect x="630" y="135" width="500" height="65" rx="8" ry="8" fill="#dae8fc" stroke="#6c8ebf" stroke-width="2"/>
<text x="880.0" y="158.0" text-anchor="middle" dominant-baseline="middle" font-family="Arial, sans-serif" font-size="14" font-weight="normal" fill="#202124">Remote API</text>
<text x="880.0" y="179.0" text-anchor="middle" dominant-baseline="middle" font-family="Arial, sans-serif" font-size="11" font-weight="normal" fill="#202124">HTTP + WebSocket • GUI / tools / test / control</text>
<rect x="250" y="305" width="360" height="75" rx="8" ry="8" fill="#d5e8d4" stroke="#82b366" stroke-width="2"/>
<text x="430.0" y="333.0" text-anchor="middle" dominant-baseline="middle" font-family="Arial, sans-serif" font-size="14" font-weight="normal" fill="#202124">Conductor</text>
<text x="430.0" y="354.0" text-anchor="middle" dominant-baseline="middle" font-family="Arial, sans-serif" font-size="11" font-weight="normal" fill="#202124">lifecycle / application-wide coordination</text>
<rect x="750" y="305" width="360" height="75" rx="8" ry="8" fill="#d5e8d4" stroke="#82b366" stroke-width="2"/>
<text x="930.0" y="333.0" text-anchor="middle" dominant-baseline="middle" font-family="Arial, sans-serif" font-size="14" font-weight="normal" fill="#202124">CommandHandler</text>
<text x="930.0" y="354.0" text-anchor="middle" dominant-baseline="middle" font-family="Arial, sans-serif" font-size="11" font-weight="normal" fill="#202124">presentation commands / queries</text>
<rect x="355" y="500" width="400" height="50" rx="8" ry="8" fill="#fffaf0" stroke="#d6b656" stroke-width="2"/>
<text x="555.0" y="515.5" text-anchor="middle" dominant-baseline="middle" font-family="Arial, sans-serif" font-size="14" font-weight="normal" fill="#202124">TimingNode</text>
<text x="555.0" y="536.5" text-anchor="middle" dominant-baseline="middle" font-family="Arial, sans-serif" font-size="11" font-weight="normal" fill="#202124">TimingNodeId • LocationID • lifecycle/status</text>
<rect x="175" y="570" width="235" height="60" rx="8" ry="8" fill="#fff2cc" stroke="#d6b656" stroke-width="2"/>
<text x="292.5" y="590.5" text-anchor="middle" dominant-baseline="middle" font-family="Arial, sans-serif" font-size="14" font-weight="normal" fill="#202124">TagProcessor</text>
<text x="292.5" y="611.5" text-anchor="middle" dominant-baseline="middle" font-family="Arial, sans-serif" font-size="11" font-weight="normal" fill="#202124">RFID/tag processing</text>
<rect x="425" y="570" width="250" height="60" rx="8" ry="8" fill="#fff2cc" stroke="#d6b656" stroke-width="2"/>
<text x="550.0" y="590.5" text-anchor="middle" dominant-baseline="middle" font-family="Arial, sans-serif" font-size="14" font-weight="normal" fill="#202124">StageStartTimes</text>
<text x="550.0" y="611.5" text-anchor="middle" dominant-baseline="middle" font-family="Arial, sans-serif" font-size="11" font-weight="normal" fill="#202124">start-time reference</text>
<rect x="690" y="570" width="245" height="60" rx="8" ry="8" fill="#fff2cc" stroke="#d6b656" stroke-width="2"/>
<text x="812.5" y="590.5" text-anchor="middle" dominant-baseline="middle" font-family="Arial, sans-serif" font-size="14" font-weight="normal" fill="#202124">Journal</text>
<text x="812.5" y="611.5" text-anchor="middle" dominant-baseline="middle" font-family="Arial, sans-serif" font-size="11" font-weight="normal" fill="#202124">registrations • sequence/persistence</text>
<rect x="175" y="650" width="235" height="60" rx="8" ry="8" fill="#fff2cc" stroke="#d6b656" stroke-width="2"/>
<text x="292.5" y="670.5" text-anchor="middle" dominant-baseline="middle" font-family="Arial, sans-serif" font-size="14" font-weight="normal" fill="#202124">NextUpTeams</text>
<text x="292.5" y="691.5" text-anchor="middle" dominant-baseline="middle" font-family="Arial, sans-serif" font-size="11" font-weight="normal" fill="#202124">teams expected next</text>
<rect x="425" y="650" width="250" height="60" rx="8" ry="8" fill="#fff2cc" stroke="#d6b656" stroke-width="2"/>
<text x="550.0" y="670.5" text-anchor="middle" dominant-baseline="middle" font-family="Arial, sans-serif" font-size="14" font-weight="normal" fill="#202124">RaceData</text>
<text x="550.0" y="691.5" text-anchor="middle" dominant-baseline="middle" font-family="Arial, sans-serif" font-size="11" font-weight="normal" fill="#202124">participant/team/tag reference</text>
<rect x="690" y="650" width="245" height="60" rx="8" ry="8" fill="#fff2cc" stroke="#d6b656" stroke-width="2"/>
<text x="812.5" y="670.5" text-anchor="middle" dominant-baseline="middle" font-family="Arial, sans-serif" font-size="14" font-weight="normal" fill="#202124">StageTiming</text>
<text x="812.5" y="691.5" text-anchor="middle" dominant-baseline="middle" font-family="Arial, sans-serif" font-size="11" font-weight="normal" fill="#202124">running times + ranking</text>
<rect x="995" y="570" width="210" height="85" rx="8" ry="8" fill="#fff2cc" stroke="#d6b656" stroke-width="2"/>
<text x="1100.0" y="603.0" text-anchor="middle" dominant-baseline="middle" font-family="Arial, sans-serif" font-size="14" font-weight="normal" fill="#202124">SystemStatus</text>
<text x="1100.0" y="624.0" text-anchor="middle" dominant-baseline="middle" font-family="Arial, sans-serif" font-size="11" font-weight="normal" fill="#202124">application-wide status/health</text>
<rect x="145" y="825" width="220" height="75" rx="8" ry="8" fill="#f4cccc" stroke="#b85450" stroke-width="2"/>
<text x="255.0" y="853.0" text-anchor="middle" dominant-baseline="middle" font-family="Arial, sans-serif" font-size="14" font-weight="normal" fill="#202124">Storage</text>
<text x="255.0" y="874.0" text-anchor="middle" dominant-baseline="middle" font-family="Arial, sans-serif" font-size="11" font-weight="normal" fill="#202124">file / DB • backup / restore</text>
<rect x="385" y="825" width="280" height="75" rx="8" ry="8" fill="#f8cecc" stroke="#b85450" stroke-width="2"/>
<text x="525.0" y="862.5" text-anchor="middle" dominant-baseline="middle" font-family="Arial, sans-serif" font-size="14" font-weight="normal" fill="#202124">Antenna (0..N)</text>
<rect x="685" y="825" width="300" height="75" rx="8" ry="8" fill="#f8cecc" stroke="#b85450" stroke-width="2"/>
<text x="835.0" y="853.0" text-anchor="middle" dominant-baseline="middle" font-family="Arial, sans-serif" font-size="14" font-weight="normal" fill="#202124">BackofficeConnector (0..N)</text>
<text x="835.0" y="874.0" text-anchor="middle" dominant-baseline="middle" font-family="Arial, sans-serif" font-size="11" font-weight="normal" fill="#202124">RabbitMQ</text>
<rect x="1005" y="825" width="215" height="75" rx="8" ry="8" fill="#f8cecc" stroke="#b85450" stroke-width="2"/>
<text x="1112.5" y="853.0" text-anchor="middle" dominant-baseline="middle" font-family="Arial, sans-serif" font-size="14" font-weight="normal" fill="#202124">Devices</text>
<text x="1112.5" y="874.0" text-anchor="middle" dominant-baseline="middle" font-family="Arial, sans-serif" font-size="11" font-weight="normal" fill="#202124">CAN • display</text>
<rect x="240" y="1000" width="880" height="45" rx="8" ry="8" fill="#e1d5e7" stroke="#9673a6" stroke-width="2"/>
<text x="680.0" y="1022.5" text-anchor="middle" dominant-baseline="middle" font-family="Arial, sans-serif" font-size="14" font-weight="normal" fill="#202124">Clock • filesystem • executors • process/network/OS primitives</text>
<rect x="1300" y="165" width="170" height="235" rx="8" ry="8" fill="#eeeeee" stroke="#777777" stroke-width="2"/>
<text x="1385.0" y="228.7" text-anchor="middle" dominant-baseline="middle" font-family="Arial, sans-serif" font-size="14" font-weight="normal" fill="#202124">Logging</text>
<text x="1385.0" y="246.7" text-anchor="middle" dominant-baseline="middle" font-family="Arial, sans-serif" font-size="14" font-weight="normal" fill="#202124"></text>
<text x="1385.0" y="264.6" text-anchor="middle" dominant-baseline="middle" font-family="Arial, sans-serif" font-size="14" font-weight="normal" fill="#202124">Configuration</text>
<text x="1385.0" y="282.5" text-anchor="middle" dominant-baseline="middle" font-family="Arial, sans-serif" font-size="14" font-weight="normal" fill="#202124"></text>
<text x="1385.0" y="300.4" text-anchor="middle" dominant-baseline="middle" font-family="Arial, sans-serif" font-size="14" font-weight="normal" fill="#202124">Diagnostics</text>
<text x="1385.0" y="318.3" text-anchor="middle" dominant-baseline="middle" font-family="Arial, sans-serif" font-size="14" font-weight="normal" fill="#202124"></text>
<text x="1385.0" y="336.3" text-anchor="middle" dominant-baseline="middle" font-family="Arial, sans-serif" font-size="14" font-weight="normal" fill="#202124">Build / version identity</text>
<rect x="1300" y="970" width="170" height="70" rx="8" ry="8" fill="#eeeeee" stroke="#777777" stroke-width="2"/>
<text x="1385.0" y="996.0" text-anchor="middle" dominant-baseline="middle" font-family="Arial, sans-serif" font-size="14" font-weight="normal" fill="#202124">Responsibility view only</text>
<text x="1385.0" y="1014.0" text-anchor="middle" dominant-baseline="middle" font-family="Arial, sans-serif" font-size="14" font-weight="normal" fill="#202124">≠ Maven artifact split</text>
</svg>
