<svg xmlns="http://www.w3.org/2000/svg" width="1420" height="1000" viewBox="0 0 1420 1000">
<defs>
<marker id="arrow" markerWidth="10" markerHeight="10" refX="9" refY="3" orient="auto" markerUnits="strokeWidth">
<path d="M0,0 L0,6 L9,3 z" fill="#555"/>
</marker></defs>
<rect width="100%" height="100%" fill="white"/>
<text x="30" y="42" font-family="Arial, sans-serif" font-size="24" font-weight="bold">Software items and principal system interfaces</text>
<line x1="642.5" y1="120.0" x2="511.3" y2="175.0" stroke="#555" stroke-width="2" marker-end="url(#arrow)"/>
<line x1="798.8" y1="120.0" x2="932.0" y2="175.0" stroke="#555" stroke-width="2" marker-end="url(#arrow)"/>
<line x1="497.8" y1="260.0" x2="632.0" y2="325.0" stroke="#555" stroke-width="2" marker-end="url(#arrow)"/>
<line x1="948.6" y1="260.0" x2="816.5" y2="325.0" stroke="#555" stroke-width="2" marker-end="url(#arrow)"/>
<line x1="725.0" y1="415.0" x2="725.0" y2="490.0" stroke="#555" stroke-width="2" marker-end="url(#arrow)"/>
<line x1="714.9" y1="590.0" x2="694.6" y2="690.0" stroke="#555" stroke-width="2" marker-end="url(#arrow)"/>
<line x1="465.0" y1="738.8" x2="390.0" y2="739.2" stroke="#555" stroke-width="2" marker-end="url(#arrow)"/>
<line x1="905.0" y1="738.8" x2="980.0" y2="739.2" stroke="#555" stroke-width="2" marker-end="url(#arrow)"/>
<line x1="385.0" y1="529.9" x2="500.0" y2="533.3" stroke="#555" stroke-width="2" stroke-dasharray="7 5" marker-end="url(#arrow)"/>
<line x1="289.7" y1="850.0" x2="654.8" y2="590.0" stroke="#555" stroke-width="2" stroke-dasharray="7 5" marker-end="url(#arrow)"/>
<line x1="1010.0" y1="530.5" x2="950.0" y2="532.5" stroke="#555" stroke-width="2" stroke-dasharray="7 5" marker-end="url(#arrow)"/>
<line x1="1132.2" y1="775.0" x2="1169.1" y2="850.0" stroke="#555" stroke-width="2" stroke-dasharray="7 5" marker-end="url(#arrow)"/>
<rect x="610" y="55" width="220" height="65" rx="8" ry="8" fill="#eeeeee" stroke="#777777" stroke-width="2"/>
<text x="720.0" y="87.5" text-anchor="middle" dominant-baseline="middle" font-family="Arial, sans-serif" font-size="14">Operator</text>
<rect x="280" y="175" width="260" height="85" rx="8" ry="8" fill="#f5f5f5" stroke="#666666" stroke-width="2"/>
<text x="410.0" y="208.5" text-anchor="middle" dominant-baseline="middle" font-family="Arial, sans-serif" font-size="14">SI-02</text>
<text x="410.0" y="227.5" text-anchor="middle" dominant-baseline="middle" font-family="Arial, sans-serif" font-size="14">Desktop GUI</text>
<rect x="900" y="175" width="270" height="85" rx="8" ry="8" fill="#f5f5f5" stroke="#666666" stroke-width="2"/>
<text x="1035.0" y="208.5" text-anchor="middle" dominant-baseline="middle" font-family="Arial, sans-serif" font-size="14">SI-03</text>
<text x="1035.0" y="227.5" text-anchor="middle" dominant-baseline="middle" font-family="Arial, sans-serif" font-size="14">Web / iPad Operator</text>
<rect x="505" y="325" width="440" height="90" rx="8" ry="8" fill="#dae8fc" stroke="#6c8ebf" stroke-width="2"/>
<text x="725.0" y="361.0" text-anchor="middle" dominant-baseline="middle" font-family="Arial, sans-serif" font-size="14">IF-03 Application Control &amp; Status</text>
<text x="725.0" y="380.0" text-anchor="middle" dominant-baseline="middle" font-family="Arial, sans-serif" font-size="14">HTTP/JSON + WebSocket</text>
<rect x="500" y="490" width="450" height="100" rx="8" ry="8" fill="#d5e8d4" stroke="#82b366" stroke-width="2"/>
<text x="725.0" y="531.0" text-anchor="middle" dominant-baseline="middle" font-family="Arial, sans-serif" font-size="14">SI-01 Headless Timing Application</text>
<text x="725.0" y="550.0" text-anchor="middle" dominant-baseline="middle" font-family="Arial, sans-serif" font-size="14">1..X TimingSystemInstances</text>
<rect x="465" y="690" width="440" height="95" rx="8" ry="8" fill="#fff2cc" stroke="#d6b656" stroke-width="2"/>
<text x="685.0" y="728.5" text-anchor="middle" dominant-baseline="middle" font-family="Arial, sans-serif" font-size="14">In-memory authoritative state</text>
<text x="685.0" y="747.5" text-anchor="middle" dominant-baseline="middle" font-family="Arial, sans-serif" font-size="14">registration • ready-team • reference data</text>
<rect x="120" y="705" width="270" height="70" rx="8" ry="8" fill="#f8cecc" stroke="#b85450" stroke-width="2"/>
<text x="255.0" y="740.0" text-anchor="middle" dominant-baseline="middle" font-family="Arial, sans-serif" font-size="14">Simple file backup / restore</text>
<rect x="980" y="705" width="270" height="70" rx="8" ry="8" fill="#d0e0e3" stroke="#6c8ebf" stroke-width="2"/>
<text x="1115.0" y="740.0" text-anchor="middle" dominant-baseline="middle" font-family="Arial, sans-serif" font-size="14">Backoffice outbox / sync</text>
<rect x="55" y="480" width="330" height="90" rx="8" ry="8" fill="#eeeeee" stroke="#777777" stroke-width="2"/>
<text x="220.0" y="516.0" text-anchor="middle" dominant-baseline="middle" font-family="Arial, sans-serif" font-size="14">IF-07 RFID subsystem</text>
<text x="220.0" y="535.0" text-anchor="middle" dominant-baseline="middle" font-family="Arial, sans-serif" font-size="14">private production adapter possible</text>
<rect x="80" y="850" width="300" height="85" rx="8" ry="8" fill="#eeeeee" stroke="#777777" stroke-width="2"/>
<text x="230.0" y="883.5" text-anchor="middle" dominant-baseline="middle" font-family="Arial, sans-serif" font-size="14">IF-08 CAN bus</text>
<text x="230.0" y="902.5" text-anchor="middle" dominant-baseline="middle" font-family="Arial, sans-serif" font-size="14">keypad + Display V1</text>
<rect x="1010" y="480" width="330" height="90" rx="8" ry="8" fill="#eeeeee" stroke="#777777" stroke-width="2"/>
<text x="1175.0" y="516.0" text-anchor="middle" dominant-baseline="middle" font-family="Arial, sans-serif" font-size="14">IF-09 Smart Display V2</text>
<text x="1175.0" y="535.0" text-anchor="middle" dominant-baseline="middle" font-family="Arial, sans-serif" font-size="14">mDNS + network data</text>
<rect x="1050" y="850" width="280" height="85" rx="8" ry="8" fill="#eeeeee" stroke="#777777" stroke-width="2"/>
<text x="1190.0" y="883.5" text-anchor="middle" dominant-baseline="middle" font-family="Arial, sans-serif" font-size="14">IF-06 Backoffice</text>
<text x="1190.0" y="902.5" text-anchor="middle" dominant-baseline="middle" font-family="Arial, sans-serif" font-size="14">RabbitMQ intended</text>
</svg>
