<svg xmlns="http://www.w3.org/2000/svg" width="1440" height="1520" viewBox="0 0 1440 1520">
<defs>
<marker id="arrow" markerWidth="10" markerHeight="10" refX="9" refY="3" orient="auto" markerUnits="strokeWidth">
<path d="M0,0 L0,6 L9,3 z" fill="#5f6368"/>
</marker>
</defs>
<rect width="100%" height="100%" fill="#ffffff"/>
<text x="30.0" y="38.0" text-anchor="start" dominant-baseline="middle" font-family="Arial, sans-serif" font-size="26" font-weight="bold" fill="#202124">Figure SI01-01 — SI-01 layered architecture</text>
<text x="30.0" y="68.0" text-anchor="start" dominant-baseline="middle" font-family="Arial, sans-serif" font-size="12" font-weight="normal" fill="#202124">Selected arrows show principal relationships only; high-level arrows may terminate on a layer boundary when component-level ownership is intentionally deferred.</text>
<rect x="30" y="85" width="1120" height="213" rx="10" ry="10" fill="#eef4ff" stroke="#6c8ebf" stroke-width="2"/>
<text x="46.0" y="107.0" text-anchor="start" dominant-baseline="middle" font-family="Arial, sans-serif" font-size="17" font-weight="bold" fill="#202124">Presentation / external interfaces</text>
<rect x="30" y="318" width="1120" height="210" rx="10" ry="10" fill="#eef8ee" stroke="#82b366" stroke-width="2"/>
<text x="46.0" y="340.0" text-anchor="start" dominant-baseline="middle" font-family="Arial, sans-serif" font-size="17" font-weight="bold" fill="#202124">Application layer</text>
<path data-outline="polygon" d="M 30.0 1021.0 L 30.0 556.0 Q 30.0 546.0 40.0 546.0 L 1140.0 546.0 Q 1150.0 546.0 1150.0 556.0 L 1150.0 943.4 Q 1150.0 953.4 1140.0 953.4 L 846.8 953.4 Q 836.8 953.4 830.9 961.5 L 785.7 1022.9 Q 779.8 1031.0 769.8 1031.0 L 40.0 1031.0 Q 30.0 1031.0 30.0 1021.0 Z" fill="#fff8df" stroke="#d6b656" stroke-width="2" stroke-linejoin="round"/>
<text x="46.0" y="568.0" text-anchor="start" dominant-baseline="middle" font-family="Arial, sans-serif" font-size="17" font-weight="bold" fill="#202124">Domain layer</text>
<g data-engineering-id="TimingSystem">
<rect x="55" y="586" width="1080" height="330" rx="10" ry="10" fill="#fffaf0" stroke="#d6b656" stroke-width="2"/>
<g data-notation="component" fill="none" stroke="#d6b656" stroke-width="1.7"><rect x="1109" y="594" width="20" height="22"/><rect x="1101" y="598" width="11" height="6" fill="white"/><rect x="1101" y="608" width="11" height="6" fill="white"/></g>
<text x="71.0" y="608.0" text-anchor="start" dominant-baseline="middle" font-family="Arial, sans-serif" font-size="17" font-weight="bold" fill="#202124">TimingSystem (1..N)</text>
<rect data-group-properties="true" x="75.0" y="626.0" width="220.0" height="31.4" rx="4" ry="4" fill="#ffffff" stroke="#d6b656" stroke-width="1"/>
<text x="85.0" y="643.0" text-anchor="start" dominant-baseline="middle" font-family="Arial, sans-serif" font-size="12" font-weight="normal" fill="#202124">- SystemId (internal)</text>
</g>
<g data-engineering-id="TimingNode">
<rect x="550" y="606" width="560" height="300" rx="10" ry="10" fill="#fffaf0" stroke="#d6b656" stroke-width="2"/>
<g data-notation="component" fill="none" stroke="#d6b656" stroke-width="1.7"><rect x="1084" y="614" width="20" height="22"/><rect x="1076" y="618" width="11" height="6" fill="white"/><rect x="1076" y="628" width="11" height="6" fill="white"/></g>
<text x="566.0" y="628.0" text-anchor="start" dominant-baseline="middle" font-family="Arial, sans-serif" font-size="17" font-weight="bold" fill="#202124">TimingNode (1..N)</text>
<rect data-group-properties="true" x="570.0" y="646.0" width="240.0" height="66.2" rx="4" ry="4" fill="#ffffff" stroke="#d6b656" stroke-width="1"/>
<text x="580.0" y="663.0" text-anchor="start" dominant-baseline="middle" font-family="Arial, sans-serif" font-size="12" font-weight="normal" fill="#202124">- NodeId</text>
<text x="580.0" y="680.4" text-anchor="start" dominant-baseline="middle" font-family="Arial, sans-serif" font-size="12" font-weight="normal" fill="#202124">- LocationId</text>
<text x="580.0" y="697.8" text-anchor="start" dominant-baseline="middle" font-family="Arial, sans-serif" font-size="12" font-weight="normal" fill="#202124">- State</text>
</g>
<path data-outline="polygon" d="M 30.0 1250.0 L 30.0 1072.8 Q 30.0 1062.8 40.0 1062.8 L 769.8 1062.8 Q 779.8 1062.8 785.4 1054.5 L 831.2 986.3 Q 836.8 978.0 846.8 978.0 L 1140.0 978.0 Q 1150.0 978.0 1150.0 988.0 L 1150.0 1250.0 Q 1150.0 1260.0 1140.0 1260.0 L 40.0 1260.0 Q 30.0 1260.0 30.0 1250.0 Z" fill="#fff0ee" stroke="#b85450" stroke-width="2" stroke-linejoin="round"/>
<text x="46.0" y="1078.0" text-anchor="start" dominant-baseline="middle" font-family="Arial, sans-serif" font-size="17" font-weight="bold" fill="#202124">I/O (per TimingSystem)</text>
<rect x="30" y="1290" width="1120" height="220" rx="10" ry="10" fill="#f2eff8" stroke="#9673a6" stroke-width="2"/>
<text x="46.0" y="1312.0" text-anchor="start" dominant-baseline="middle" font-family="Arial, sans-serif" font-size="17" font-weight="bold" fill="#202124">Platform abstractions / execution environment</text>
<rect x="1170" y="85" width="250" height="415" rx="10" ry="10" fill="#f5f5f5" stroke="#777777" stroke-width="2"/>
<text x="1186.0" y="107.0" text-anchor="start" dominant-baseline="middle" font-family="Arial, sans-serif" font-size="17" font-weight="bold" fill="#202124">Runtime</text>
<rect x="1170" y="520" width="250" height="990" rx="10" ry="10" fill="#f5f5f5" stroke="#777777" stroke-width="2"/>
<text x="1186.0" y="531.1" text-anchor="start" dominant-baseline="middle" font-family="Arial, sans-serif" font-size="17" font-weight="bold" fill="#202124">Infrastructure /</text>
<text x="1186.0" y="552.9" text-anchor="start" dominant-baseline="middle" font-family="Arial, sans-serif" font-size="17" font-weight="bold" fill="#202124">cross-cutting</text>
<polyline points="1295.0,610.0 1295.0,665.0" fill="none" stroke="#5f6368" stroke-width="2" stroke-dasharray="7 5" marker-end="url(#arrow)"/>
<polyline points="155.0,195.0 155.0,207.5 155.0,207.5 155.0,220.0" fill="none" stroke="#5f6368" stroke-width="2" marker-end="url(#arrow)"/>
<polyline points="385.0,195.0 385.0,220.0" fill="none" stroke="#5f6368" stroke-width="2" marker-end="url(#arrow)"/>
<polyline points="275.0,270.0 275.0,308.0 584.6,308.0 584.6,345.0" fill="none" stroke="#5f6368" stroke-width="2" marker-end="url(#arrow)"/>
<polyline points="655.0,195.0 655.0,345.0" fill="none" stroke="#5f6368" stroke-width="2" marker-end="url(#arrow)"/>
<polyline points="965.0,195.0 965.0,290.0 710.0,290.0 710.0,345.0" fill="none" stroke="#5f6368" stroke-width="2" marker-end="url(#arrow)"/>
<polyline points="655.0,395.0 655.0,445.0" fill="none" stroke="#5f6368" stroke-width="2" marker-end="url(#arrow)"/>
<polyline points="545.0,370.0 165.0,370.0 165.0,425.0" fill="none" stroke="#5f6368" stroke-width="2" marker-end="url(#arrow)"/>
<polyline points="209.0,475.0 209.0,510.5 209.2,510.5 209.2,546.0" fill="none" stroke="#5f6368" stroke-width="2" marker-end="url(#arrow)"/>
<polyline points="121.0,475.0 121.0,515.0 20.0,515.0 20.0,1018.0 175.6,1018.0 175.6,1062.8" fill="none" stroke="#5f6368" stroke-width="2" marker-end="url(#arrow)"/>
<polyline points="1000.0,475.0 1000.0,586.0" fill="none" stroke="#5f6368" stroke-width="2" marker-end="url(#arrow)"/>
<polyline points="1130.0,450.0 1165.0,450.0 1165.0,1046.0 665.0,1046.0 665.0,1098.0" fill="none" stroke="#5f6368" stroke-width="2" marker-end="url(#arrow)"/>
<polyline points="655.0,495.0 655.0,550.5 830.0,550.5 830.0,606.0" fill="none" stroke="#5f6368" stroke-width="2" marker-end="url(#arrow)"/>
<polyline points="570.0,747.0 530.0,747.0 530.0,932.0 290.0,932.0 290.0,956.0" fill="none" stroke="#5f6368" stroke-width="2" stroke-dasharray="7 5" marker-end="url(#arrow)"/>
<rect x="370.0" y="919.0" width="80" height="22" fill="#ffffff" opacity="0.94"/>
<text x="410.0" y="931.0" text-anchor="middle" dominant-baseline="middle" font-family="Arial, sans-serif" font-size="12" font-weight="normal" fill="#202124">resolves</text>
<polyline points="830.0,906.0 830.0,936.0 625.0,936.0 625.0,956.0" fill="none" stroke="#5f6368" stroke-width="2" stroke-dasharray="7 5" marker-end="url(#arrow)"/>
<rect x="667.5" y="923.0" width="120" height="22" fill="#ffffff" opacity="0.94"/>
<text x="727.5" y="935.0" text-anchor="middle" dominant-baseline="middle" font-family="Arial, sans-serif" font-size="12" font-weight="normal" fill="#202124">uses / produces</text>
<polyline points="425.0,782.0 425.0,900.0 505.0,900.0 505.0,956.0" fill="none" stroke="#5f6368" stroke-width="2" stroke-dasharray="7 5" marker-end="url(#arrow)"/>
<rect x="385.0" y="828.0" width="80" height="22" fill="#ffffff" opacity="0.94"/>
<text x="425.0" y="840.0" text-anchor="middle" dominant-baseline="middle" font-family="Arial, sans-serif" font-size="12" font-weight="normal" fill="#202124">uses</text>
<g data-engineering-id="Console">
<rect x="55" y="145" width="200" height="50" rx="8" ry="8" fill="#dae8fc" stroke="#6c8ebf" stroke-width="2"/>
<g data-notation="component" fill="none" stroke="#6c8ebf" stroke-width="1.7"><rect x="229" y="153" width="20" height="22"/><rect x="221" y="157" width="11" height="6" fill="white"/><rect x="221" y="167" width="11" height="6" fill="white"/></g>
<text x="155.0" y="159.8" text-anchor="middle" dominant-baseline="middle" font-family="Arial, sans-serif" font-size="14" font-weight="normal" fill="#202124">Console</text>
<text x="155.0" y="181.5" text-anchor="middle" dominant-baseline="middle" font-family="Arial, sans-serif" font-size="12" font-weight="normal" fill="#202124">local text interface</text>
<g data-notation="port" data-port-id="console" data-port-side="top">
<rect x="150.0" y="140.0" width="10" height="10" fill="#ffffff" stroke="#6c8ebf" stroke-width="1.5"/>
<text x="155.0" y="132.0" text-anchor="middle" dominant-baseline="middle" font-family="Arial, sans-serif" font-size="12" font-weight="normal" fill="#202124">Local console</text>
</g>
</g>
<g data-engineering-id="RemoteShell">
<rect x="275" y="145" width="220" height="50" rx="8" ry="8" fill="#dae8fc" stroke="#6c8ebf" stroke-width="2"/>
<g data-notation="component" fill="none" stroke="#6c8ebf" stroke-width="1.7"><rect x="469" y="153" width="20" height="22"/><rect x="461" y="157" width="11" height="6" fill="white"/><rect x="461" y="167" width="11" height="6" fill="white"/></g>
<text x="385.0" y="159.8" text-anchor="middle" dominant-baseline="middle" font-family="Arial, sans-serif" font-size="14" font-weight="normal" fill="#202124">RemoteShell</text>
<text x="385.0" y="181.5" text-anchor="middle" dominant-baseline="middle" font-family="Arial, sans-serif" font-size="12" font-weight="normal" fill="#202124">remote text interface</text>
<g data-notation="port" data-port-id="shell" data-port-side="top">
<rect x="380.0" y="140.0" width="10" height="10" fill="#ffffff" stroke="#6c8ebf" stroke-width="1.5"/>
<text x="385.0" y="132.0" text-anchor="middle" dominant-baseline="middle" font-family="Arial, sans-serif" font-size="12" font-weight="normal" fill="#202124">TCP shell</text>
</g>
</g>
<g data-engineering-id="Web">
<rect x="515" y="145" width="280" height="50" rx="8" ry="8" fill="#dae8fc" stroke="#6c8ebf" stroke-width="2"/>
<g data-notation="component" fill="none" stroke="#6c8ebf" stroke-width="1.7"><rect x="769" y="153" width="20" height="22"/><rect x="761" y="157" width="11" height="6" fill="white"/><rect x="761" y="167" width="11" height="6" fill="white"/></g>
<text x="655.0" y="159.8" text-anchor="middle" dominant-baseline="middle" font-family="Arial, sans-serif" font-size="14" font-weight="normal" fill="#202124">Web</text>
<text x="655.0" y="181.5" text-anchor="middle" dominant-baseline="middle" font-family="Arial, sans-serif" font-size="12" font-weight="normal" fill="#202124">browser-facing • 1 binding per TimingNode</text>
<g data-notation="port" data-port-id="http" data-port-side="top">
<rect x="599.6" y="140.0" width="10" height="10" fill="#ffffff" stroke="#6c8ebf" stroke-width="1.5"/>
<text x="604.6" y="132.0" text-anchor="middle" dominant-baseline="middle" font-family="Arial, sans-serif" font-size="12" font-weight="normal" fill="#202124">HTTP</text>
</g>
<g data-notation="port" data-port-id="websocket" data-port-side="top">
<rect x="711.6" y="140.0" width="10" height="10" fill="#ffffff" stroke="#6c8ebf" stroke-width="1.5"/>
<text x="716.6" y="132.0" text-anchor="middle" dominant-baseline="middle" font-family="Arial, sans-serif" font-size="12" font-weight="normal" fill="#202124">WebSocket</text>
</g>
</g>
<g data-engineering-id="Api">
<rect x="815" y="145" width="300" height="50" rx="8" ry="8" fill="#dae8fc" stroke="#6c8ebf" stroke-width="2"/>
<g data-notation="component" fill="none" stroke="#6c8ebf" stroke-width="1.7"><rect x="1089" y="153" width="20" height="22"/><rect x="1081" y="157" width="11" height="6" fill="white"/><rect x="1081" y="167" width="11" height="6" fill="white"/></g>
<text x="965.0" y="159.8" text-anchor="middle" dominant-baseline="middle" font-family="Arial, sans-serif" font-size="14" font-weight="normal" fill="#202124">Api</text>
<text x="965.0" y="181.5" text-anchor="middle" dominant-baseline="middle" font-family="Arial, sans-serif" font-size="12" font-weight="normal" fill="#202124">remote clients • tools • test</text>
<g data-notation="port" data-port-id="http" data-port-side="top">
<rect x="906.0" y="140.0" width="10" height="10" fill="#ffffff" stroke="#6c8ebf" stroke-width="1.5"/>
<text x="911.0" y="132.0" text-anchor="middle" dominant-baseline="middle" font-family="Arial, sans-serif" font-size="12" font-weight="normal" fill="#202124">HTTP</text>
</g>
<g data-notation="port" data-port-id="websocket" data-port-side="top">
<rect x="1026.0" y="140.0" width="10" height="10" fill="#ffffff" stroke="#6c8ebf" stroke-width="1.5"/>
<text x="1031.0" y="132.0" text-anchor="middle" dominant-baseline="middle" font-family="Arial, sans-serif" font-size="12" font-weight="normal" fill="#202124">WebSocket</text>
</g>
</g>
<g data-engineering-id="SharedTerminalHandler">
<rect x="55" y="220" width="440" height="50" rx="8" ry="8" fill="#dae8fc" stroke="#6c8ebf" stroke-width="2"/>
<g data-notation="component" fill="none" stroke="#6c8ebf" stroke-width="1.7"><rect x="469" y="228" width="20" height="22"/><rect x="461" y="232" width="11" height="6" fill="white"/><rect x="461" y="242" width="11" height="6" fill="white"/></g>
<text x="275.0" y="234.8" text-anchor="middle" dominant-baseline="middle" font-family="Arial, sans-serif" font-size="14" font-weight="normal" fill="#202124">SharedTerminalHandler</text>
<text x="275.0" y="256.5" text-anchor="middle" dominant-baseline="middle" font-family="Arial, sans-serif" font-size="12" font-weight="normal" fill="#202124">command parsing • terminal session behaviour</text>
</g>
<g data-engineering-id="ApplicationConductor">
<rect x="295" y="425" width="220" height="50" rx="8" ry="8" fill="#d5e8d4" stroke="#82b366" stroke-width="2"/>
<g data-notation="component" fill="none" stroke="#82b366" stroke-width="1.7"><rect x="489" y="433" width="20" height="22"/><rect x="481" y="437" width="11" height="6" fill="white"/><rect x="481" y="447" width="11" height="6" fill="white"/></g>
<text x="405.0" y="439.8" text-anchor="middle" dominant-baseline="middle" font-family="Arial, sans-serif" font-size="14" font-weight="normal" fill="#202124">Conductor</text>
<text x="405.0" y="461.5" text-anchor="middle" dominant-baseline="middle" font-family="Arial, sans-serif" font-size="12" font-weight="normal" fill="#202124">lifecycle / activation order</text>
</g>
<g data-engineering-id="PresentationGateway">
<rect x="545" y="345" width="220" height="50" rx="8" ry="8" fill="#d5e8d4" stroke="#82b366" stroke-width="2"/>
<g data-notation="component" fill="none" stroke="#82b366" stroke-width="1.7"><rect x="739" y="353" width="20" height="22"/><rect x="731" y="357" width="11" height="6" fill="white"/><rect x="731" y="367" width="11" height="6" fill="white"/></g>
<text x="655.0" y="359.8" text-anchor="middle" dominant-baseline="middle" font-family="Arial, sans-serif" font-size="14" font-weight="normal" fill="#202124">PresentationGateway</text>
<text x="655.0" y="381.5" text-anchor="middle" dominant-baseline="middle" font-family="Arial, sans-serif" font-size="12" font-weight="normal" fill="#202124">application entry / node proxy access</text>
</g>
<g data-engineering-id="TimingNodeProxy">
<rect x="545" y="445" width="220" height="50" rx="8" ry="8" fill="#d5e8d4" stroke="#82b366" stroke-width="2"/>
<g data-notation="component" fill="none" stroke="#82b366" stroke-width="1.7"><rect x="739" y="453" width="20" height="22"/><rect x="731" y="457" width="11" height="6" fill="white"/><rect x="731" y="467" width="11" height="6" fill="white"/></g>
<text x="655.0" y="459.8" text-anchor="middle" dominant-baseline="middle" font-family="Arial, sans-serif" font-size="14" font-weight="normal" fill="#202124">TimingNodeProxy (1..N)</text>
<text x="655.0" y="481.5" text-anchor="middle" dominant-baseline="middle" font-family="Arial, sans-serif" font-size="12" font-weight="normal" fill="#202124">commands / queries / events</text>
</g>
<g data-engineering-id="ConfigurationControl">
<rect x="55" y="425" width="220" height="50" rx="8" ry="8" fill="#d5e8d4" stroke="#82b366" stroke-width="2"/>
<g data-notation="component" fill="none" stroke="#82b366" stroke-width="1.7"><rect x="249" y="433" width="20" height="22"/><rect x="241" y="437" width="11" height="6" fill="white"/><rect x="241" y="447" width="11" height="6" fill="white"/></g>
<text x="165.0" y="439.8" text-anchor="middle" dominant-baseline="middle" font-family="Arial, sans-serif" font-size="14" font-weight="normal" fill="#202124">ConfigurationControl</text>
<text x="165.0" y="461.5" text-anchor="middle" dominant-baseline="middle" font-family="Arial, sans-serif" font-size="12" font-weight="normal" fill="#202124">query / runtime override use-cases</text>
</g>
<g data-engineering-id="UpstreamMessageRouter">
<rect x="870" y="425" width="260" height="50" rx="8" ry="8" fill="#d5e8d4" stroke="#82b366" stroke-width="2"/>
<g data-notation="component" fill="none" stroke="#82b366" stroke-width="1.7"><rect x="1104" y="433" width="20" height="22"/><rect x="1096" y="437" width="11" height="6" fill="white"/><rect x="1096" y="447" width="11" height="6" fill="white"/></g>
<text x="1000.0" y="439.8" text-anchor="middle" dominant-baseline="middle" font-family="Arial, sans-serif" font-size="14" font-weight="normal" fill="#202124">UpstreamMessageRouter</text>
<text x="1000.0" y="461.5" text-anchor="middle" dominant-baseline="middle" font-family="Arial, sans-serif" font-size="12" font-weight="normal" fill="#202124">upstream target resolution / routing</text>
</g>
<g data-engineering-id="SystemConductor">
<rect x="75" y="667" width="220" height="50" rx="8" ry="8" fill="#fff2cc" stroke="#d6b656" stroke-width="2"/>
<g data-notation="component" fill="none" stroke="#d6b656" stroke-width="1.7"><rect x="269" y="675" width="20" height="22"/><rect x="261" y="679" width="11" height="6" fill="white"/><rect x="261" y="689" width="11" height="6" fill="white"/></g>
<text x="185.0" y="681.8" text-anchor="middle" dominant-baseline="middle" font-family="Arial, sans-serif" font-size="14" font-weight="normal" fill="#202124">Conductor</text>
<text x="185.0" y="703.5" text-anchor="middle" dominant-baseline="middle" font-family="Arial, sans-serif" font-size="12" font-weight="normal" fill="#202124">TimingNodes • shared inventory</text>
</g>
<g data-engineering-id="SystemStatus">
<rect x="315" y="667" width="220" height="50" rx="8" ry="8" fill="#fff2cc" stroke="#d6b656" stroke-width="2"/>
<g data-notation="component" fill="none" stroke="#d6b656" stroke-width="1.7"><rect x="509" y="675" width="20" height="22"/><rect x="501" y="679" width="11" height="6" fill="white"/><rect x="501" y="689" width="11" height="6" fill="white"/></g>
<text x="425.0" y="681.8" text-anchor="middle" dominant-baseline="middle" font-family="Arial, sans-serif" font-size="14" font-weight="normal" fill="#202124">SystemStatus</text>
<text x="425.0" y="703.5" text-anchor="middle" dominant-baseline="middle" font-family="Arial, sans-serif" font-size="12" font-weight="normal" fill="#202124">complete system overview</text>
</g>
<g data-engineering-id="SystemUpstreamMessagePort">
<rect x="75" y="732" width="220" height="50" rx="8" ry="8" fill="#fff2cc" stroke="#d6b656" stroke-width="2"/>
<g data-notation="component" fill="none" stroke="#d6b656" stroke-width="1.7"><rect x="269" y="740" width="20" height="22"/><rect x="261" y="744" width="11" height="6" fill="white"/><rect x="261" y="754" width="11" height="6" fill="white"/></g>
<text x="185.0" y="746.8" text-anchor="middle" dominant-baseline="middle" font-family="Arial, sans-serif" font-size="14" font-weight="normal" fill="#202124">UpstreamMessagePort</text>
<text x="185.0" y="768.5" text-anchor="middle" dominant-baseline="middle" font-family="Arial, sans-serif" font-size="12" font-weight="normal" fill="#202124">system-level upstream</text>
</g>
<g data-engineering-id="TimingNodeUpstreamMessagePort">
<rect x="850" y="657" width="240" height="50" rx="8" ry="8" fill="#fff2cc" stroke="#d6b656" stroke-width="2"/>
<g data-notation="component" fill="none" stroke="#d6b656" stroke-width="1.7"><rect x="1064" y="665" width="20" height="22"/><rect x="1056" y="669" width="11" height="6" fill="white"/><rect x="1056" y="679" width="11" height="6" fill="white"/></g>
<text x="970.0" y="671.8" text-anchor="middle" dominant-baseline="middle" font-family="Arial, sans-serif" font-size="14" font-weight="normal" fill="#202124">UpstreamMessagePort</text>
<text x="970.0" y="693.5" text-anchor="middle" dominant-baseline="middle" font-family="Arial, sans-serif" font-size="12" font-weight="normal" fill="#202124">node-level upstream</text>
</g>
<g data-engineering-id="TagProcessor">
<rect x="570" y="722" width="240" height="50" rx="8" ry="8" fill="#fff2cc" stroke="#d6b656" stroke-width="2"/>
<g data-notation="component" fill="none" stroke="#d6b656" stroke-width="1.7"><rect x="784" y="730" width="20" height="22"/><rect x="776" y="734" width="11" height="6" fill="white"/><rect x="776" y="744" width="11" height="6" fill="white"/></g>
<text x="690.0" y="736.8" text-anchor="middle" dominant-baseline="middle" font-family="Arial, sans-serif" font-size="14" font-weight="normal" fill="#202124">TagProcessor</text>
<text x="690.0" y="758.5" text-anchor="middle" dominant-baseline="middle" font-family="Arial, sans-serif" font-size="12" font-weight="normal" fill="#202124">RFID/tag processing</text>
</g>
<g data-engineering-id="StageStartTimes">
<rect x="850" y="722" width="240" height="50" rx="8" ry="8" fill="#fff2cc" stroke="#d6b656" stroke-width="2"/>
<g data-notation="component" fill="none" stroke="#d6b656" stroke-width="1.7"><rect x="1064" y="730" width="20" height="22"/><rect x="1056" y="734" width="11" height="6" fill="white"/><rect x="1056" y="744" width="11" height="6" fill="white"/></g>
<text x="970.0" y="736.8" text-anchor="middle" dominant-baseline="middle" font-family="Arial, sans-serif" font-size="14" font-weight="normal" fill="#202124">StageStartTimes</text>
<text x="970.0" y="758.5" text-anchor="middle" dominant-baseline="middle" font-family="Arial, sans-serif" font-size="12" font-weight="normal" fill="#202124">start-time reference</text>
</g>
<g data-engineering-id="NextUpTeams">
<rect x="570" y="782" width="240" height="50" rx="8" ry="8" fill="#fff2cc" stroke="#d6b656" stroke-width="2"/>
<g data-notation="component" fill="none" stroke="#d6b656" stroke-width="1.7"><rect x="784" y="790" width="20" height="22"/><rect x="776" y="794" width="11" height="6" fill="white"/><rect x="776" y="804" width="11" height="6" fill="white"/></g>
<text x="690.0" y="796.8" text-anchor="middle" dominant-baseline="middle" font-family="Arial, sans-serif" font-size="14" font-weight="normal" fill="#202124">NextUpTeams</text>
<text x="690.0" y="818.5" text-anchor="middle" dominant-baseline="middle" font-family="Arial, sans-serif" font-size="12" font-weight="normal" fill="#202124">teams expected next</text>
</g>
<g data-engineering-id="RaceData">
<rect x="850" y="782" width="240" height="50" rx="8" ry="8" fill="#fff2cc" stroke="#d6b656" stroke-width="2"/>
<g data-notation="component" fill="none" stroke="#d6b656" stroke-width="1.7"><rect x="1064" y="790" width="20" height="22"/><rect x="1056" y="794" width="11" height="6" fill="white"/><rect x="1056" y="804" width="11" height="6" fill="white"/></g>
<text x="970.0" y="796.8" text-anchor="middle" dominant-baseline="middle" font-family="Arial, sans-serif" font-size="14" font-weight="normal" fill="#202124">RaceData</text>
<text x="970.0" y="818.5" text-anchor="middle" dominant-baseline="middle" font-family="Arial, sans-serif" font-size="12" font-weight="normal" fill="#202124">runtime / upstream race data</text>
</g>
<g data-engineering-id="StageTiming">
<rect x="570" y="842" width="240" height="50" rx="8" ry="8" fill="#fff2cc" stroke="#d6b656" stroke-width="2"/>
<g data-notation="component" fill="none" stroke="#d6b656" stroke-width="1.7"><rect x="784" y="850" width="20" height="22"/><rect x="776" y="854" width="11" height="6" fill="white"/><rect x="776" y="864" width="11" height="6" fill="white"/></g>
<text x="690.0" y="856.8" text-anchor="middle" dominant-baseline="middle" font-family="Arial, sans-serif" font-size="14" font-weight="normal" fill="#202124">StageTiming</text>
<text x="690.0" y="878.5" text-anchor="middle" dominant-baseline="middle" font-family="Arial, sans-serif" font-size="12" font-weight="normal" fill="#202124">running times + ranking</text>
</g>
<g data-engineering-id="LogBook">
<rect x="850" y="842" width="240" height="50" rx="8" ry="8" fill="#fff2cc" stroke="#d6b656" stroke-width="2"/>
<g data-notation="component" fill="none" stroke="#d6b656" stroke-width="1.7"><rect x="1064" y="850" width="20" height="22"/><rect x="1056" y="854" width="11" height="6" fill="white"/><rect x="1056" y="864" width="11" height="6" fill="white"/></g>
<text x="970.0" y="856.8" text-anchor="middle" dominant-baseline="middle" font-family="Arial, sans-serif" font-size="14" font-weight="normal" fill="#202124">LogBook</text>
<text x="970.0" y="878.5" text-anchor="middle" dominant-baseline="middle" font-family="Arial, sans-serif" font-size="12" font-weight="normal" fill="#202124">0..N TimingDataRecord</text>
</g>
<g data-engineering-id="EventData">
<rect x="95" y="956" width="300" height="50" rx="8" ry="8" fill="#fff2cc" stroke="#d6b656" stroke-width="2"/>
<g data-notation="component" fill="none" stroke="#d6b656" stroke-width="1.7"><rect x="369" y="964" width="20" height="22"/><rect x="361" y="968" width="11" height="6" fill="white"/><rect x="361" y="978" width="11" height="6" fill="white"/></g>
<text x="245.0" y="970.8" text-anchor="middle" dominant-baseline="middle" font-family="Arial, sans-serif" font-size="14" font-weight="normal" fill="#202124">EventData</text>
<text x="245.0" y="992.5" text-anchor="middle" dominant-baseline="middle" font-family="Arial, sans-serif" font-size="12" font-weight="normal" fill="#202124">TagId • RegistrationId • profile/provider</text>
</g>
<g data-engineering-id="TimingData">
<rect x="415" y="956" width="300" height="50" rx="8" ry="8" fill="#fff2cc" stroke="#d6b656" stroke-width="2"/>
<g data-notation="component" fill="none" stroke="#d6b656" stroke-width="1.7"><rect x="689" y="964" width="20" height="22"/><rect x="681" y="968" width="11" height="6" fill="white"/><rect x="681" y="978" width="11" height="6" fill="white"/></g>
<text x="565.0" y="970.8" text-anchor="middle" dominant-baseline="middle" font-family="Arial, sans-serif" font-size="14" font-weight="normal" fill="#202124">TimingData</text>
<text x="565.0" y="992.5" text-anchor="middle" dominant-baseline="middle" font-family="Arial, sans-serif" font-size="12" font-weight="normal" fill="#202124">LocationId • RegistrationId • record + codec</text>
</g>
<g data-engineering-id="UpstreamProtocol">
<rect x="315" y="732" width="220" height="50" rx="8" ry="8" fill="#fff2cc" stroke="#d6b656" stroke-width="2"/>
<g data-notation="component" fill="none" stroke="#d6b656" stroke-width="1.7"><rect x="509" y="740" width="20" height="22"/><rect x="501" y="744" width="11" height="6" fill="white"/><rect x="501" y="754" width="11" height="6" fill="white"/></g>
<text x="425.0" y="746.8" text-anchor="middle" dominant-baseline="middle" font-family="Arial, sans-serif" font-size="14" font-weight="normal" fill="#202124">UpstreamProtocol</text>
<text x="425.0" y="768.5" text-anchor="middle" dominant-baseline="middle" font-family="Arial, sans-serif" font-size="12" font-weight="normal" fill="#202124">TimingData • sync • ping / pong</text>
</g>
<g data-engineering-id="Storage">
<rect x="55" y="1098" width="200" height="95" rx="8" ry="8" fill="#f4cccc" stroke="#b85450" stroke-width="2"/>
<g data-notation="packaging-component" fill="none" stroke="#b85450" stroke-width="1.6"><path d="M220,1110 v-4 h11 l3,4 h14 v18 h-28 z" fill="white"/><rect x="218" y="1114" width="8" height="4" fill="white"/><rect x="218" y="1120" width="8" height="4" fill="white"/></g>
<text x="155.0" y="1121.0" text-anchor="middle" dominant-baseline="middle" font-family="Arial, sans-serif" font-size="14" font-weight="normal" fill="#202124">Storage</text>
<text x="71.0" y="1145.2" text-anchor="start" dominant-baseline="middle" font-family="Arial, sans-serif" font-size="12" font-weight="normal" fill="#202124">• TimingDataStore</text>
<text x="83.0" y="1161.8" text-anchor="start" dominant-baseline="middle" font-family="Arial, sans-serif" font-size="12" font-weight="normal" fill="#202124">└─ FileTimingDataStore</text>
</g>
<g data-engineering-id="Devices">
<rect x="890" y="1000" width="240" height="245" rx="8" ry="8" fill="#f8cecc" stroke="#b85450" stroke-width="2"/>
<g data-notation="packaging-component" fill="none" stroke="#b85450" stroke-width="1.6"><path d="M1095,1012 v-4 h11 l3,4 h14 v18 h-28 z" fill="white"/><rect x="1093" y="1016" width="8" height="4" fill="white"/><rect x="1093" y="1022" width="8" height="4" fill="white"/></g>
<text x="1010.0" y="1023.0" text-anchor="middle" dominant-baseline="middle" font-family="Arial, sans-serif" font-size="14" font-weight="normal" fill="#202124">Devices</text>
<g data-engineering-id="AntennaManager">
<text x="906.0" y="1047.2" text-anchor="start" dominant-baseline="middle" font-family="Arial, sans-serif" font-size="12" font-weight="normal" fill="#202124">• AntennaManager</text>
</g>
<g data-engineering-id="Antenna">
<text x="918.0" y="1063.8" text-anchor="start" dominant-baseline="middle" font-family="Arial, sans-serif" font-size="12" font-weight="normal" fill="#202124">└─ Antenna (0..N)</text>
</g>
<g data-engineering-id="SimulatedAntenna">
<text x="930.0" y="1080.3" text-anchor="start" dominant-baseline="middle" font-family="Arial, sans-serif" font-size="12" font-weight="normal" fill="#202124">└─ SimulatedAntenna</text>
</g>
<g data-engineering-id="VendorAntenna">
<text x="930.0" y="1096.9" text-anchor="start" dominant-baseline="middle" font-family="Arial, sans-serif" font-size="12" font-weight="normal" fill="#202124">└─ VendorAntenna</text>
</g>
<g data-engineering-id="PowerDevice">
<text x="906.0" y="1113.4" text-anchor="start" dominant-baseline="middle" font-family="Arial, sans-serif" font-size="12" font-weight="normal" fill="#202124">• PowerDevice (0..N)</text>
</g>
<g data-engineering-id="SimulatedPowerDevice">
<text x="918.0" y="1130.0" text-anchor="start" dominant-baseline="middle" font-family="Arial, sans-serif" font-size="12" font-weight="normal" fill="#202124">└─ SimulatedPowerDevice</text>
</g>
<g data-engineering-id="Display">
<text x="906.0" y="1146.6" text-anchor="start" dominant-baseline="middle" font-family="Arial, sans-serif" font-size="12" font-weight="normal" fill="#202124">• Display</text>
</g>
<g data-engineering-id="Rev1CanDisplay">
<text x="918.0" y="1163.1" text-anchor="start" dominant-baseline="middle" font-family="Arial, sans-serif" font-size="12" font-weight="normal" fill="#202124">└─ Rev1CanDisplay</text>
</g>
<g data-engineering-id="Rev2WifiDisplay">
<text x="918.0" y="1179.7" text-anchor="start" dominant-baseline="middle" font-family="Arial, sans-serif" font-size="12" font-weight="normal" fill="#202124">└─ Rev2WifiDisplay</text>
</g>
<g data-engineering-id="Keypad">
<text x="906.0" y="1196.2" text-anchor="start" dominant-baseline="middle" font-family="Arial, sans-serif" font-size="12" font-weight="normal" fill="#202124">• Keypad</text>
</g>
<g data-engineering-id="Rev1CanKeypad">
<text x="918.0" y="1212.8" text-anchor="start" dominant-baseline="middle" font-family="Arial, sans-serif" font-size="12" font-weight="normal" fill="#202124">└─ Rev1CanKeypad</text>
</g>
<g data-engineering-id="Beeper">
<text x="906.0" y="1229.4" text-anchor="start" dominant-baseline="middle" font-family="Arial, sans-serif" font-size="12" font-weight="normal" fill="#202124">• Beeper</text>
</g>
</g>
<g data-engineering-id="DeviceNetworks">
<rect x="275" y="1098" width="240" height="95" rx="8" ry="8" fill="#f8cecc" stroke="#b85450" stroke-width="2"/>
<g data-notation="packaging-component" fill="none" stroke="#b85450" stroke-width="1.6"><path d="M480,1110 v-4 h11 l3,4 h14 v18 h-28 z" fill="white"/><rect x="478" y="1114" width="8" height="4" fill="white"/><rect x="478" y="1120" width="8" height="4" fill="white"/></g>
<text x="395.0" y="1121.0" text-anchor="middle" dominant-baseline="middle" font-family="Arial, sans-serif" font-size="14" font-weight="normal" fill="#202124">DeviceNetworks</text>
<g data-engineering-id="CanNetworkController">
<text x="291.0" y="1145.2" text-anchor="start" dominant-baseline="middle" font-family="Arial, sans-serif" font-size="12" font-weight="normal" fill="#202124">• CanNetworkController</text>
</g>
<g data-engineering-id="NetworkDeviceService">
<text x="291.0" y="1161.8" text-anchor="start" dominant-baseline="middle" font-family="Arial, sans-serif" font-size="12" font-weight="normal" fill="#202124">• NetworkDeviceService</text>
</g>
</g>
<g data-engineering-id="Messaging">
<rect x="535" y="1098" width="260" height="120" rx="8" ry="8" fill="#f8cecc" stroke="#b85450" stroke-width="2"/>
<g data-notation="packaging-component" fill="none" stroke="#b85450" stroke-width="1.6"><path d="M760,1110 v-4 h11 l3,4 h14 v18 h-28 z" fill="white"/><rect x="758" y="1114" width="8" height="4" fill="white"/><rect x="758" y="1120" width="8" height="4" fill="white"/></g>
<text x="665.0" y="1121.0" text-anchor="middle" dominant-baseline="middle" font-family="Arial, sans-serif" font-size="14" font-weight="normal" fill="#202124">Messaging</text>
<g data-engineering-id="UpstreamGateway">
<text x="551.0" y="1145.2" text-anchor="start" dominant-baseline="middle" font-family="Arial, sans-serif" font-size="12" font-weight="normal" fill="#202124">• UpstreamGateway</text>
</g>
<g data-engineering-id="Connector">
<text x="563.0" y="1161.8" text-anchor="start" dominant-baseline="middle" font-family="Arial, sans-serif" font-size="12" font-weight="normal" fill="#202124">└─ Connector (1..N)</text>
</g>
<g data-engineering-id="RabbitMqConnector">
<text x="575.0" y="1178.3" text-anchor="start" dominant-baseline="middle" font-family="Arial, sans-serif" font-size="12" font-weight="normal" fill="#202124">└─ RabbitMqConnector</text>
</g>
<g data-engineering-id="DebugConnector">
<text x="575.0" y="1194.9" text-anchor="start" dominant-baseline="middle" font-family="Arial, sans-serif" font-size="12" font-weight="normal" fill="#202124">└─ DebugConnector</text>
</g>
</g>
<g data-engineering-id="PlatformExecution">
<rect x="55" y="1332" width="280" height="160" rx="8" ry="8" fill="#e1d5e7" stroke="#9673a6" stroke-width="2"/>
<g data-notation="packaging-component" fill="none" stroke="#9673a6" stroke-width="1.6"><path d="M300,1344 v-4 h11 l3,4 h14 v18 h-28 z" fill="white"/><rect x="298" y="1348" width="8" height="4" fill="white"/><rect x="298" y="1354" width="8" height="4" fill="white"/></g>
<text x="195.0" y="1355.0" text-anchor="middle" dominant-baseline="middle" font-family="Arial, sans-serif" font-size="14" font-weight="normal" fill="#202124">Execution</text>
<g data-engineering-id="SerialExecutor">
<text x="71.0" y="1379.2" text-anchor="start" dominant-baseline="middle" font-family="Arial, sans-serif" font-size="12" font-weight="normal" fill="#202124">• SerialExecutor</text>
</g>
<g data-engineering-id="SerialScheduledExecutor">
<text x="71.0" y="1395.8" text-anchor="start" dominant-baseline="middle" font-family="Arial, sans-serif" font-size="12" font-weight="normal" fill="#202124">• SerialScheduledExecutor</text>
</g>
<g data-engineering-id="SerialTaskRunner">
<text x="71.0" y="1412.3" text-anchor="start" dominant-baseline="middle" font-family="Arial, sans-serif" font-size="12" font-weight="normal" fill="#202124">• SerialTaskRunner</text>
</g>
<g data-engineering-id="ScheduledTaskRunner">
<text x="71.0" y="1428.9" text-anchor="start" dominant-baseline="middle" font-family="Arial, sans-serif" font-size="12" font-weight="normal" fill="#202124">• ScheduledTaskRunner</text>
</g>
<g data-engineering-id="CooperativeTaskController">
<text x="71.0" y="1445.4" text-anchor="start" dominant-baseline="middle" font-family="Arial, sans-serif" font-size="12" font-weight="normal" fill="#202124">• CooperativeTaskController</text>
</g>
</g>
<g data-engineering-id="PlatformEvents">
<rect x="355" y="1332" width="180" height="95" rx="8" ry="8" fill="#e1d5e7" stroke="#9673a6" stroke-width="2"/>
<g data-notation="packaging-component" fill="none" stroke="#9673a6" stroke-width="1.6"><path d="M500,1344 v-4 h11 l3,4 h14 v18 h-28 z" fill="white"/><rect x="498" y="1348" width="8" height="4" fill="white"/><rect x="498" y="1354" width="8" height="4" fill="white"/></g>
<text x="445.0" y="1355.0" text-anchor="middle" dominant-baseline="middle" font-family="Arial, sans-serif" font-size="14" font-weight="normal" fill="#202124">Events</text>
<g data-engineering-id="Event">
<text x="371.0" y="1379.2" text-anchor="start" dominant-baseline="middle" font-family="Arial, sans-serif" font-size="12" font-weight="normal" fill="#202124">• Event&lt;T&gt;</text>
</g>
<g data-engineering-id="EventSource">
<text x="371.0" y="1395.8" text-anchor="start" dominant-baseline="middle" font-family="Arial, sans-serif" font-size="12" font-weight="normal" fill="#202124">• EventSource&lt;T&gt;</text>
</g>
</g>
<g data-engineering-id="PlatformEnvironment">
<rect x="555" y="1332" width="300" height="115" rx="8" ry="8" fill="#e1d5e7" stroke="#9673a6" stroke-width="2"/>
<g data-notation="packaging-component" fill="none" stroke="#9673a6" stroke-width="1.6"><path d="M820,1344 v-4 h11 l3,4 h14 v18 h-28 z" fill="white"/><rect x="818" y="1348" width="8" height="4" fill="white"/><rect x="818" y="1354" width="8" height="4" fill="white"/></g>
<text x="705.0" y="1355.0" text-anchor="middle" dominant-baseline="middle" font-family="Arial, sans-serif" font-size="14" font-weight="normal" fill="#202124">PlatformEnvironment</text>
<text x="571.0" y="1379.2" text-anchor="start" dominant-baseline="middle" font-family="Arial, sans-serif" font-size="12" font-weight="normal" fill="#202124">• Clock — raw absolute time</text>
<g data-engineering-id="MonotonicClock">
<text x="571.0" y="1395.8" text-anchor="start" dominant-baseline="middle" font-family="Arial, sans-serif" font-size="12" font-weight="normal" fill="#202124">• MonotonicClock — elapsed time</text>
</g>
<g data-engineering-id="OperatingSystem">
<text x="571.0" y="1412.3" text-anchor="start" dominant-baseline="middle" font-family="Arial, sans-serif" font-size="12" font-weight="normal" fill="#202124">• OperatingSystem — platform family</text>
</g>
</g>
<g data-engineering-id="PlatformTime">
<rect x="875" y="1332" width="250" height="95" rx="8" ry="8" fill="#e1d5e7" stroke="#9673a6" stroke-width="2"/>
<g data-notation="packaging-component" fill="none" stroke="#9673a6" stroke-width="1.6"><path d="M1090,1344 v-4 h11 l3,4 h14 v18 h-28 z" fill="white"/><rect x="1088" y="1348" width="8" height="4" fill="white"/><rect x="1088" y="1354" width="8" height="4" fill="white"/></g>
<text x="1000.0" y="1355.0" text-anchor="middle" dominant-baseline="middle" font-family="Arial, sans-serif" font-size="14" font-weight="normal" fill="#202124">Timing time</text>
<g data-engineering-id="TimeSource">
<text x="891.0" y="1379.2" text-anchor="start" dominant-baseline="middle" font-family="Arial, sans-serif" font-size="12" font-weight="normal" fill="#202124">• TimeSource</text>
</g>
<g data-engineering-id="ClockTimeSource">
<text x="891.0" y="1395.8" text-anchor="start" dominant-baseline="middle" font-family="Arial, sans-serif" font-size="12" font-weight="normal" fill="#202124">• ClockTimeSource</text>
</g>
</g>
<g data-engineering-id="TimingApplicationRuntime">
<rect x="1185" y="115" width="220" height="50" rx="8" ry="8" fill="#eeeeee" stroke="#777777" stroke-width="2"/>
<g data-notation="component" fill="none" stroke="#777777" stroke-width="1.7"><rect x="1379" y="123" width="20" height="22"/><rect x="1371" y="127" width="11" height="6" fill="white"/><rect x="1371" y="137" width="11" height="6" fill="white"/></g>
<text x="1295.0" y="129.8" text-anchor="middle" dominant-baseline="middle" font-family="Arial, sans-serif" font-size="14" font-weight="normal" fill="#202124">TimingApplicationRuntime</text>
<text x="1295.0" y="151.5" text-anchor="middle" dominant-baseline="middle" font-family="Arial, sans-serif" font-size="12" font-weight="normal" fill="#202124">composition root • lifecycle</text>
</g>
<g data-engineering-id="SimulationRuntime">
<rect x="1185" y="175" width="220" height="50" rx="8" ry="8" fill="#eeeeee" stroke="#777777" stroke-width="2"/>
<g data-notation="component" fill="none" stroke="#777777" stroke-width="1.7"><rect x="1379" y="183" width="20" height="22"/><rect x="1371" y="187" width="11" height="6" fill="white"/><rect x="1371" y="197" width="11" height="6" fill="white"/></g>
<text x="1295.0" y="189.8" text-anchor="middle" dominant-baseline="middle" font-family="Arial, sans-serif" font-size="14" font-weight="normal" fill="#202124">SimulationRuntime</text>
<text x="1295.0" y="211.5" text-anchor="middle" dominant-baseline="middle" font-family="Arial, sans-serif" font-size="12" font-weight="normal" fill="#202124">simulation composition entry</text>
</g>
<g data-engineering-id="PresentationRuntime">
<rect x="1185" y="235" width="220" height="50" rx="8" ry="8" fill="#eeeeee" stroke="#777777" stroke-width="2"/>
<g data-notation="component" fill="none" stroke="#777777" stroke-width="1.7"><rect x="1379" y="243" width="20" height="22"/><rect x="1371" y="247" width="11" height="6" fill="white"/><rect x="1371" y="257" width="11" height="6" fill="white"/></g>
<text x="1295.0" y="249.8" text-anchor="middle" dominant-baseline="middle" font-family="Arial, sans-serif" font-size="14" font-weight="normal" fill="#202124">PresentationRuntime</text>
<text x="1295.0" y="271.5" text-anchor="middle" dominant-baseline="middle" font-family="Arial, sans-serif" font-size="12" font-weight="normal" fill="#202124">presentation adapters • lifecycle</text>
</g>
<g data-engineering-id="RuntimeExecutors">
<rect x="1185" y="295" width="220" height="50" rx="8" ry="8" fill="#eeeeee" stroke="#777777" stroke-width="2"/>
<g data-notation="component" fill="none" stroke="#777777" stroke-width="1.7"><rect x="1379" y="303" width="20" height="22"/><rect x="1371" y="307" width="11" height="6" fill="white"/><rect x="1371" y="317" width="11" height="6" fill="white"/></g>
<text x="1295.0" y="309.8" text-anchor="middle" dominant-baseline="middle" font-family="Arial, sans-serif" font-size="14" font-weight="normal" fill="#202124">RuntimeExecutors</text>
<text x="1295.0" y="331.5" text-anchor="middle" dominant-baseline="middle" font-family="Arial, sans-serif" font-size="12" font-weight="normal" fill="#202124">physical role workers</text>
</g>
<g data-engineering-id="RuntimeTimeSources">
<rect x="1185" y="355" width="220" height="50" rx="8" ry="8" fill="#eeeeee" stroke="#777777" stroke-width="2"/>
<g data-notation="component" fill="none" stroke="#777777" stroke-width="1.7"><rect x="1379" y="363" width="20" height="22"/><rect x="1371" y="367" width="11" height="6" fill="white"/><rect x="1371" y="377" width="11" height="6" fill="white"/></g>
<text x="1295.0" y="369.8" text-anchor="middle" dominant-baseline="middle" font-family="Arial, sans-serif" font-size="14" font-weight="normal" fill="#202124">RuntimeTimeSources</text>
<text x="1295.0" y="391.5" text-anchor="middle" dominant-baseline="middle" font-family="Arial, sans-serif" font-size="12" font-weight="normal" fill="#202124">timing source composition</text>
</g>
<g data-engineering-id="ApplicationConfiguration">
<rect x="1185" y="415" width="220" height="50" rx="8" ry="8" fill="#eeeeee" stroke="#777777" stroke-width="2"/>
<g data-notation="component" fill="none" stroke="#777777" stroke-width="1.7"><rect x="1379" y="423" width="20" height="22"/><rect x="1371" y="427" width="11" height="6" fill="white"/><rect x="1371" y="437" width="11" height="6" fill="white"/></g>
<text x="1295.0" y="429.8" text-anchor="middle" dominant-baseline="middle" font-family="Arial, sans-serif" font-size="14" font-weight="normal" fill="#202124">ApplicationConfiguration</text>
<text x="1295.0" y="451.5" text-anchor="middle" dominant-baseline="middle" font-family="Arial, sans-serif" font-size="12" font-weight="normal" fill="#202124">effective running configuration</text>
</g>
<g data-engineering-id="LoggingServer">
<rect x="1185" y="560" width="220" height="50" rx="8" ry="8" fill="#eeeeee" stroke="#777777" stroke-width="2"/>
<g data-notation="component" fill="none" stroke="#777777" stroke-width="1.7"><rect x="1379" y="568" width="20" height="22"/><rect x="1371" y="572" width="11" height="6" fill="white"/><rect x="1371" y="582" width="11" height="6" fill="white"/></g>
<text x="1295.0" y="574.8" text-anchor="middle" dominant-baseline="middle" font-family="Arial, sans-serif" font-size="14" font-weight="normal" fill="#202124">LoggingServer</text>
<text x="1295.0" y="596.5" text-anchor="middle" dominant-baseline="middle" font-family="Arial, sans-serif" font-size="12" font-weight="normal" fill="#202124">live diagnostics • external TCP</text>
</g>
<g data-engineering-id="Logging">
<rect x="1185" y="665" width="220" height="50" rx="8" ry="8" fill="#eeeeee" stroke="#777777" stroke-width="2"/>
<g data-notation="component" fill="none" stroke="#777777" stroke-width="1.7"><rect x="1379" y="673" width="20" height="22"/><rect x="1371" y="677" width="11" height="6" fill="white"/><rect x="1371" y="687" width="11" height="6" fill="white"/></g>
<text x="1295.0" y="679.8" text-anchor="middle" dominant-baseline="middle" font-family="Arial, sans-serif" font-size="14" font-weight="normal" fill="#202124">Logging</text>
<text x="1295.0" y="701.5" text-anchor="middle" dominant-baseline="middle" font-family="Arial, sans-serif" font-size="12" font-weight="normal" fill="#202124">levels • console • retained file</text>
</g>
<rect x="1185" y="770" width="220" height="50" rx="8" ry="8" fill="#eeeeee" stroke="#777777" stroke-width="2"/>
<text x="1295.0" y="795.0" text-anchor="middle" dominant-baseline="middle" font-family="Arial, sans-serif" font-size="14" font-weight="normal" fill="#202124">Build / version identity</text>
<g data-engineering-id="Configuration">
<rect x="1185" y="870" width="220" height="50" rx="8" ry="8" fill="#eeeeee" stroke="#777777" stroke-width="2"/>
<g data-notation="component" fill="none" stroke="#777777" stroke-width="1.7"><rect x="1379" y="878" width="20" height="22"/><rect x="1371" y="882" width="11" height="6" fill="white"/><rect x="1371" y="892" width="11" height="6" fill="white"/></g>
<text x="1295.0" y="884.8" text-anchor="middle" dominant-baseline="middle" font-family="Arial, sans-serif" font-size="14" font-weight="normal" fill="#202124">Configuration&lt;T&gt;</text>
<text x="1295.0" y="906.5" text-anchor="middle" dominant-baseline="middle" font-family="Arial, sans-serif" font-size="12" font-weight="normal" fill="#202124">values • overrides • events</text>
</g>
</svg>
